{
	"asset":{
		"generator":"Khronos glTF Blender I/O v4.0.44",
		"version":"2.0"
	},
	"scene":0,
	"scenes":[
		{
			"name":"Scene",
			"nodes":[
				0,
				1,
				2,
				3,
				4,
				5,
				6,
				7
			]
		}
	],
	"nodes":[
		{
			"mesh":0,
			"name":"rock-high-01",
			"rotation":[
				0,
				0,
				-0.19068054854869843,
				0.9816521406173706
			],
			"translation":[
				-15.312396049499512,
				1.3554518222808838,
				0
			]
		},
		{
			"mesh":1,
			"name":"rock-high-02",
			"translation":[
				-5.425349712371826,
				1.9767005443572998,
				0
			]
		},
		{
			"mesh":2,
			"name":"rock-high-03",
			"translation":[
				4.574650287628174,
				1.9767005443572998,
				0
			]
		},
		{
			"mesh":3,
			"name":"rock-high-04",
			"rotation":[
				0.13372346758842468,
				0,
				0,
				0.9910187721252441
			],
			"translation":[
				14.574649810791016,
				3.388629674911499,
				0
			]
		},
		{
			"mesh":4,
			"name":"rock-low-01",
			"rotation":[
				0,
				0,
				-0.19068054854869843,
				0.9816521406173706
			],
			"translation":[
				-15.312396049499512,
				1.3554518222808838,
				0
			]
		},
		{
			"mesh":5,
			"name":"rock-low-02",
			"translation":[
				-5.425349712371826,
				1.9767005443572998,
				0
			]
		},
		{
			"mesh":6,
			"name":"rock-low-03",
			"translation":[
				4.574650287628174,
				1.9767005443572998,
				0
			]
		},
		{
			"mesh":7,
			"name":"rock-low-04",
			"rotation":[
				0.13372346758842468,
				0,
				0,
				0.9910187721252441
			],
			"translation":[
				14.574649810791016,
				3.388629674911499,
				0
			]
		}
	],
	"meshes":[
		{
			"name":"Icosphere",
			"primitives":[
				{
					"attributes":{
						"COLOR_0":0,
						"POSITION":1,
						"NORMAL":2,
						"TEXCOORD_0":3
					},
					"indices":4
				}
			]
		},
		{
			"name":"Icosphere.002",
			"primitives":[
				{
					"attributes":{
						"COLOR_0":5,
						"POSITION":6,
						"NORMAL":7
					},
					"indices":8
				}
			]
		},
		{
			"name":"Icosphere.004",
			"primitives":[
				{
					"attributes":{
						"COLOR_0":9,
						"POSITION":10,
						"NORMAL":11,
						"TEXCOORD_0":12
					},
					"indices":13
				}
			]
		},
		{
			"name":"Icosphere.006",
			"primitives":[
				{
					"attributes":{
						"COLOR_0":14,
						"POSITION":15,
						"NORMAL":16,
						"TEXCOORD_0":17
					},
					"indices":18
				}
			]
		},
		{
			"name":"Icosphere.008",
			"primitives":[
				{
					"attributes":{
						"COLOR_0":19,
						"POSITION":20,
						"NORMAL":21,
						"TEXCOORD_0":22
					},
					"indices":23
				}
			]
		},
		{
			"name":"Icosphere.009",
			"primitives":[
				{
					"attributes":{
						"COLOR_0":24,
						"POSITION":25,
						"NORMAL":26,
						"TEXCOORD_0":27
					},
					"indices":28
				}
			]
		},
		{
			"name":"Icosphere.010",
			"primitives":[
				{
					"attributes":{
						"COLOR_0":29,
						"POSITION":30,
						"NORMAL":31,
						"TEXCOORD_0":32
					},
					"indices":33
				}
			]
		},
		{
			"name":"Icosphere.011",
			"primitives":[
				{
					"attributes":{
						"COLOR_0":34,
						"POSITION":35,
						"NORMAL":36,
						"TEXCOORD_0":37
					},
					"indices":38
				}
			]
		}
	],
	"accessors":[
		{
			"bufferView":0,
			"componentType":5123,
			"count":31899,
			"normalized":true,
			"type":"VEC4"
		},
		{
			"bufferView":1,
			"componentType":5126,
			"count":31899,
			"max":[
				2.61755633354187,
				2.1203062534332275,
				1.5407752990722656
			],
			"min":[
				-2.37262225151062,
				-2.0458223819732666,
				-1.3009302616119385
			],
			"type":"VEC3"
		},
		{
			"bufferView":2,
			"componentType":5126,
			"count":31899,
			"type":"VEC3"
		},
		{
			"bufferView":3,
			"componentType":5126,
			"count":31899,
			"type":"VEC2"
		},
		{
			"bufferView":4,
			"componentType":5123,
			"count":184770,
			"type":"SCALAR"
		},
		{
			"bufferView":5,
			"componentType":5123,
			"count":108997,
			"normalized":true,
			"type":"VEC4"
		},
		{
			"bufferView":6,
			"componentType":5126,
			"count":108997,
			"max":[
				1.816887617111206,
				2.8675689697265625,
				3.0656979084014893
			],
			"min":[
				-1.9931156635284424,
				-2.163795232772827,
				-2.81547474861145
			],
			"type":"VEC3"
		},
		{
			"bufferView":7,
			"componentType":5126,
			"count":108997,
			"type":"VEC3"
		},
		{
			"bufferView":8,
			"componentType":5125,
			"count":634656,
			"type":"SCALAR"
		},
		{
			"bufferView":9,
			"componentType":5123,
			"count":23138,
			"normalized":true,
			"type":"VEC4"
		},
		{
			"bufferView":10,
			"componentType":5126,
			"count":23138,
			"max":[
				2.5047216415405273,
				2.6545825004577637,
				2.2536468505859375
			],
			"min":[
				-3.2266156673431396,
				-2.2137038707733154,
				-2.1994590759277344
			],
			"type":"VEC3"
		},
		{
			"bufferView":11,
			"componentType":5126,
			"count":23138,
			"type":"VEC3"
		},
		{
			"bufferView":12,
			"componentType":5126,
			"count":23138,
			"type":"VEC2"
		},
		{
			"bufferView":13,
			"componentType":5123,
			"count":138816,
			"type":"SCALAR"
		},
		{
			"bufferView":14,
			"componentType":5123,
			"count":17156,
			"normalized":true,
			"type":"VEC4"
		},
		{
			"bufferView":15,
			"componentType":5126,
			"count":17156,
			"max":[
				2.4237680435180664,
				3.837846040725708,
				2.6008834838867188
			],
			"min":[
				-2.967874526977539,
				-3.97971510887146,
				-2.174696445465088
			],
			"type":"VEC3"
		},
		{
			"bufferView":16,
			"componentType":5126,
			"count":17156,
			"type":"VEC3"
		},
		{
			"bufferView":17,
			"componentType":5126,
			"count":17156,
			"type":"VEC2"
		},
		{
			"bufferView":18,
			"componentType":5123,
			"count":102924,
			"type":"SCALAR"
		},
		{
			"bufferView":19,
			"componentType":5123,
			"count":399,
			"normalized":true,
			"type":"VEC4"
		},
		{
			"bufferView":20,
			"componentType":5126,
			"count":399,
			"max":[
				2.6411938667297363,
				2.1065688133239746,
				1.5406557321548462
			],
			"min":[
				-2.3663718700408936,
				-2.0392251014709473,
				-1.284492015838623
			],
			"type":"VEC3"
		},
		{
			"bufferView":21,
			"componentType":5126,
			"count":399,
			"type":"VEC3"
		},
		{
			"bufferView":22,
			"componentType":5126,
			"count":399,
			"type":"VEC2"
		},
		{
			"bufferView":23,
			"componentType":5123,
			"count":1290,
			"type":"SCALAR"
		},
		{
			"bufferView":24,
			"componentType":5123,
			"count":429,
			"normalized":true,
			"type":"VEC4"
		},
		{
			"bufferView":25,
			"componentType":5126,
			"count":429,
			"max":[
				1.8203611373901367,
				2.8643290996551514,
				3.088958740234375
			],
			"min":[
				-1.9945075511932373,
				-2.1563665866851807,
				-2.8136208057403564
			],
			"type":"VEC3"
		},
		{
			"bufferView":26,
			"componentType":5126,
			"count":429,
			"type":"VEC3"
		},
		{
			"bufferView":27,
			"componentType":5126,
			"count":429,
			"type":"VEC2"
		},
		{
			"bufferView":28,
			"componentType":5123,
			"count":1266,
			"type":"SCALAR"
		},
		{
			"bufferView":29,
			"componentType":5123,
			"count":282,
			"normalized":true,
			"type":"VEC4"
		},
		{
			"bufferView":30,
			"componentType":5126,
			"count":282,
			"max":[
				2.4807777404785156,
				2.592541456222534,
				2.224348783493042
			],
			"min":[
				-3.220648765563965,
				-2.2082302570343018,
				-2.128408432006836
			],
			"type":"VEC3"
		},
		{
			"bufferView":31,
			"componentType":5126,
			"count":282,
			"type":"VEC3"
		},
		{
			"bufferView":32,
			"componentType":5126,
			"count":282,
			"type":"VEC2"
		},
		{
			"bufferView":33,
			"componentType":5123,
			"count":1386,
			"type":"SCALAR"
		},
		{
			"bufferView":34,
			"componentType":5123,
			"count":215,
			"normalized":true,
			"type":"VEC4"
		},
		{
			"bufferView":35,
			"componentType":5126,
			"count":215,
			"max":[
				2.3981714248657227,
				3.8292346000671387,
				2.614068031311035
			],
			"min":[
				-2.9641857147216797,
				-3.9641308784484863,
				-2.1487035751342773
			],
			"type":"VEC3"
		},
		{
			"bufferView":36,
			"componentType":5126,
			"count":215,
			"type":"VEC3"
		},
		{
			"bufferView":37,
			"componentType":5126,
			"count":215,
			"type":"VEC2"
		},
		{
			"bufferView":38,
			"componentType":5123,
			"count":1026,
			"type":"SCALAR"
		}
	],
	"bufferViews":[
		{
			"buffer":0,
			"byteLength":255192,
			"byteOffset":0,
			"target":34962
		},
		{
			"buffer":0,
			"byteLength":382788,
			"byteOffset":255192,
			"target":34962
		},
		{
			"buffer":0,
			"byteLength":382788,
			"byteOffset":637980,
			"target":34962
		},
		{
			"buffer":0,
			"byteLength":255192,
			"byteOffset":1020768,
			"target":34962
		},
		{
			"buffer":0,
			"byteLength":369540,
			"byteOffset":1275960,
			"target":34963
		},
		{
			"buffer":0,
			"byteLength":871976,
			"byteOffset":1645500,
			"target":34962
		},
		{
			"buffer":0,
			"byteLength":1307964,
			"byteOffset":2517476,
			"target":34962
		},
		{
			"buffer":0,
			"byteLength":1307964,
			"byteOffset":3825440,
			"target":34962
		},
		{
			"buffer":0,
			"byteLength":2538624,
			"byteOffset":5133404,
			"target":34963
		},
		{
			"buffer":0,
			"byteLength":185104,
			"byteOffset":7672028,
			"target":34962
		},
		{
			"buffer":0,
			"byteLength":277656,
			"byteOffset":7857132,
			"target":34962
		},
		{
			"buffer":0,
			"byteLength":277656,
			"byteOffset":8134788,
			"target":34962
		},
		{
			"buffer":0,
			"byteLength":185104,
			"byteOffset":8412444,
			"target":34962
		},
		{
			"buffer":0,
			"byteLength":277632,
			"byteOffset":8597548,
			"target":34963
		},
		{
			"buffer":0,
			"byteLength":137248,
			"byteOffset":8875180,
			"target":34962
		},
		{
			"buffer":0,
			"byteLength":205872,
			"byteOffset":9012428,
			"target":34962
		},
		{
			"buffer":0,
			"byteLength":205872,
			"byteOffset":9218300,
			"target":34962
		},
		{
			"buffer":0,
			"byteLength":137248,
			"byteOffset":9424172,
			"target":34962
		},
		{
			"buffer":0,
			"byteLength":205848,
			"byteOffset":9561420,
			"target":34963
		},
		{
			"buffer":0,
			"byteLength":3192,
			"byteOffset":9767268,
			"target":34962
		},
		{
			"buffer":0,
			"byteLength":4788,
			"byteOffset":9770460,
			"target":34962
		},
		{
			"buffer":0,
			"byteLength":4788,
			"byteOffset":9775248,
			"target":34962
		},
		{
			"buffer":0,
			"byteLength":3192,
			"byteOffset":9780036,
			"target":34962
		},
		{
			"buffer":0,
			"byteLength":2580,
			"byteOffset":9783228,
			"target":34963
		},
		{
			"buffer":0,
			"byteLength":3432,
			"byteOffset":9785808,
			"target":34962
		},
		{
			"buffer":0,
			"byteLength":5148,
			"byteOffset":9789240,
			"target":34962
		},
		{
			"buffer":0,
			"byteLength":5148,
			"byteOffset":9794388,
			"target":34962
		},
		{
			"buffer":0,
			"byteLength":3432,
			"byteOffset":9799536,
			"target":34962
		},
		{
			"buffer":0,
			"byteLength":2532,
			"byteOffset":9802968,
			"target":34963
		},
		{
			"buffer":0,
			"byteLength":2256,
			"byteOffset":9805500,
			"target":34962
		},
		{
			"buffer":0,
			"byteLength":3384,
			"byteOffset":9807756,
			"target":34962
		},
		{
			"buffer":0,
			"byteLength":3384,
			"byteOffset":9811140,
			"target":34962
		},
		{
			"buffer":0,
			"byteLength":2256,
			"byteOffset":9814524,
			"target":34962
		},
		{
			"buffer":0,
			"byteLength":2772,
			"byteOffset":9816780,
			"target":34963
		},
		{
			"buffer":0,
			"byteLength":1720,
			"byteOffset":9819552,
			"target":34962
		},
		{
			"buffer":0,
			"byteLength":2580,
			"byteOffset":9821272,
			"target":34962
		},
		{
			"buffer":0,
			"byteLength":2580,
			"byteOffset":9823852,
			"target":34962
		},
		{
			"buffer":0,
			"byteLength":1720,
			"byteOffset":9826432,
			"target":34962
		},
		{
			"buffer":0,
			"byteLength":2052,
			"byteOffset":9828152,
			"target":34963
		}
	],
	"buffers":[
		{
			"byteLength":9830204,
			"uri":"rocks.bin"
		}
	]
}
